<svg id="visual" viewBox="0 0 1920 1080" width="1920" height="1080" xmlns="http://www.w3.org/2000/svg" xmlns:xlink="http://www.w3.org/1999/xlink" version="1.1"><path d="M0 109L29.2 107.2C58.3 105.3 116.7 101.7 174.8 114.3C233 127 291 156 349.2 161.5C407.3 167 465.7 149 523.8 129.2C582 109.3 640 87.7 698.2 93C756.3 98.3 814.7 130.7 872.8 145C931 159.3 989 155.7 1047.2 162.8C1105.3 170 1163.7 188 1221.8 180.8C1280 173.7 1338 141.3 1396.2 123.3C1454.3 105.3 1512.7 101.7 1570.8 114.3C1629 127 1687 156 1745.2 166.8C1803.3 177.7 1861.7 170.3 1890.8 166.7L1920 163L1920 0L1890.8 0C1861.7 0 1803.3 0 1745.2 0C1687 0 1629 0 1570.8 0C1512.7 0 1454.3 0 1396.2 0C1338 0 1280 0 1221.8 0C1163.7 0 1105.3 0 1047.2 0C989 0 931 0 872.8 0C814.7 0 756.3 0 698.2 0C640 0 582 0 523.8 0C465.7 0 407.3 0 349.2 0C291 0 233 0 174.8 0C116.7 0 58.3 0 29.2 0L0 0Z" fill="#8bdbf9"></path><path d="M0 293L29.2 285.7C58.3 278.3 116.7 263.7 174.8 283.3C233 303 291 357 349.2 375C407.3 393 465.7 375 523.8 351.7C582 328.3 640 299.7 698.2 301.5C756.3 303.3 814.7 335.7 872.8 337.5C931 339.3 989 310.7 1047.2 301.7C1105.3 292.7 1163.7 303.3 1221.8 310.5C1280 317.7 1338 321.3 1396.2 328.5C1454.3 335.7 1512.7 346.3 1570.8 341C1629 335.7 1687 314.3 1745.2 318C1803.3 321.7 1861.7 350.3 1890.8 364.7L1920 379L1920 161L1890.8 164.7C1861.7 168.3 1803.3 175.7 1745.2 164.8C1687 154 1629 125 1570.8 112.3C1512.7 99.7 1454.3 103.3 1396.2 121.3C1338 139.3 1280 171.7 1221.8 178.8C1163.7 186 1105.3 168 1047.2 160.8C989 153.7 931 157.3 872.8 143C814.7 128.7 756.3 96.3 698.2 91C640 85.7 582 107.3 523.8 127.2C465.7 147 407.3 165 349.2 159.5C291 154 233 125 174.8 112.3C116.7 99.7 58.3 103.3 29.2 105.2L0 107Z" fill="#76c9e9"></path><path d="M0 422L29.2 404C58.3 386 116.7 350 174.8 360.8C233 371.7 291 429.3 349.2 451C407.3 472.7 465.7 458.3 523.8 436.7C582 415 640 386 698.2 384.2C756.3 382.3 814.7 407.7 872.8 404.2C931 400.7 989 368.3 1047.2 366.5C1105.3 364.7 1163.7 393.3 1221.8 411.3C1280 429.3 1338 436.7 1396.2 440.3C1454.3 444 1512.7 444 1570.8 431.3C1629 418.7 1687 393.3 1745.2 405.8C1803.3 418.3 1861.7 468.7 1890.8 493.8L1920 519L1920 377L1890.8 362.7C1861.7 348.3 1803.3 319.7 1745.2 316C1687 312.3 1629 333.7 1570.8 339C1512.7 344.3 1454.3 333.7 1396.2 326.5C1338 319.3 1280 315.7 1221.8 308.5C1163.7 301.3 1105.3 290.7 1047.2 299.7C989 308.7 931 337.3 872.8 335.5C814.7 333.7 756.3 301.3 698.2 299.5C640 297.7 582 326.3 523.8 349.7C465.7 373 407.3 391 349.2 373C291 355 233 301 174.8 281.3C116.7 261.7 58.3 276.3 29.2 283.7L0 291Z" fill="#61b7da"></path><path d="M0 530L29.2 510.2C58.3 490.3 116.7 450.7 174.8 466.8C233 483 291 555 349.2 582C407.3 609 465.7 591 523.8 573C582 555 640 537 698.2 538.8C756.3 540.7 814.7 562.3 872.8 544.3C931 526.3 989 468.7 1047.2 456.2C1105.3 443.7 1163.7 476.3 1221.8 503.3C1280 530.3 1338 551.7 1396.2 566C1454.3 580.3 1512.7 587.7 1570.8 569.7C1629 551.7 1687 508.3 1745.2 519.2C1803.3 530 1861.7 595 1890.8 627.5L1920 660L1920 517L1890.8 491.8C1861.7 466.7 1803.3 416.3 1745.2 403.8C1687 391.3 1629 416.7 1570.8 429.3C1512.7 442 1454.3 442 1396.2 438.3C1338 434.7 1280 427.3 1221.8 409.3C1163.7 391.3 1105.3 362.7 1047.2 364.5C989 366.3 931 398.7 872.8 402.2C814.7 405.7 756.3 380.3 698.2 382.2C640 384 582 413 523.8 434.7C465.7 456.3 407.3 470.7 349.2 449C291 427.3 233 369.7 174.8 358.8C116.7 348 58.3 384 29.2 402L0 420Z" fill="#4aa5cb"></path><path d="M0 746L29.2 724.5C58.3 703 116.7 660 174.8 696C233 732 291 847 349.2 883C407.3 919 465.7 876 523.8 863.5C582 851 640 869 698.2 870.7C756.3 872.3 814.7 857.7 872.8 855.8C931 854 989 865 1047.2 852.5C1105.3 840 1163.7 804 1221.8 804C1280 804 1338 840 1396.2 847.2C1454.3 854.3 1512.7 832.7 1570.8 794.8C1629 757 1687 703 1745.2 710.2C1803.3 717.3 1861.7 785.7 1890.8 819.8L1920 854L1920 658L1890.8 625.5C1861.7 593 1803.3 528 1745.2 517.2C1687 506.3 1629 549.7 1570.8 567.7C1512.7 585.7 1454.3 578.3 1396.2 564C1338 549.7 1280 528.3 1221.8 501.3C1163.7 474.3 1105.3 441.7 1047.2 454.2C989 466.7 931 524.3 872.8 542.3C814.7 560.3 756.3 538.7 698.2 536.8C640 535 582 553 523.8 571C465.7 589 407.3 607 349.2 580C291 553 233 481 174.8 464.8C116.7 448.7 58.3 488.3 29.2 508.2L0 528Z" fill="#3194bc"></path><path d="M0 1081L29.2 1081C58.3 1081 116.7 1081 174.8 1081C233 1081 291 1081 349.2 1081C407.3 1081 465.7 1081 523.8 1081C582 1081 640 1081 698.2 1081C756.3 1081 814.7 1081 872.8 1081C931 1081 989 1081 1047.2 1081C1105.3 1081 1163.7 1081 1221.8 1081C1280 1081 1338 1081 1396.2 1081C1454.3 1081 1512.7 1081 1570.8 1081C1629 1081 1687 1081 1745.2 1081C1803.3 1081 1861.7 1081 1890.8 1081L1920 1081L1920 852L1890.8 817.8C1861.7 783.7 1803.3 715.3 1745.2 708.2C1687 701 1629 755 1570.8 792.8C1512.7 830.7 1454.3 852.3 1396.2 845.2C1338 838 1280 802 1221.8 802C1163.7 802 1105.3 838 1047.2 850.5C989 863 931 852 872.8 853.8C814.7 855.7 756.3 870.3 698.2 868.7C640 867 582 849 523.8 861.5C465.7 874 407.3 917 349.2 881C291 845 233 730 174.8 694C116.7 658 58.3 701 29.2 722.5L0 744Z" fill="#0683ad"></path></svg>